<svg width="24" height="24" viewBox="0 0 24 24" fill="none" xmlns="http://www.w3.org/2000/svg">
<path d="M12 18C12.5523 18 13 18.4477 13 19V22C13 22.5523 12.5523 23 12 23C11.4477 23 11 22.5523 11 22V19C11 18.4477 11.4477 18 12 18ZM16.293 16.707C16.6835 16.3166 17.3165 16.3166 17.707 16.707L19.8281 18.8281C20.2186 19.2186 20.2186 19.8517 19.8281 20.2422C19.4376 20.6327 18.8046 20.6327 18.4141 20.2422L16.293 18.1211C15.9025 17.7306 15.9025 17.0975 16.293 16.707ZM6.41406 16.293C6.80455 15.9025 7.43759 15.9026 7.82812 16.293C8.21865 16.6835 8.21865 17.3165 7.82812 17.707L5.70703 19.8281C5.31651 20.2186 4.68349 20.2186 4.29297 19.8281C3.90255 19.4376 3.90248 18.8046 4.29297 18.4141L6.41406 16.293ZM12 7C14.7614 7 17 9.23858 17 12C17 14.7614 14.7614 17 12 17C9.23858 17 7 14.7614 7 12C7 9.23858 9.23858 7 12 7ZM5 11C5.55228 11 6 11.4477 6 12C6 12.5523 5.55228 13 5 13H2C1.44772 13 1 12.5523 1 12C1 11.4477 1.44772 11 2 11H5ZM22 11C22.5523 11 23 11.4477 23 12C23 12.5523 22.5523 13 22 13H19C18.4477 13 18 12.5523 18 12C18 11.4477 18.4477 11 19 11H22ZM3.70703 4.29297C4.09753 3.90247 4.73056 3.90252 5.12109 4.29297L7.24219 6.41406C7.63271 6.80459 7.63271 7.4376 7.24219 7.82812C6.85166 8.21857 6.21862 8.21862 5.82812 7.82812L3.70703 5.70703C3.31661 5.31653 3.31661 4.68347 3.70703 4.29297ZM18.4141 4.29297C18.8046 3.90248 19.4376 3.90255 19.8281 4.29297C20.2186 4.68349 20.2186 5.31651 19.8281 5.70703L17.707 7.82812C17.3165 8.21865 16.6835 8.21865 16.293 7.82812C15.9026 7.43759 15.9025 6.80455 16.293 6.41406L18.4141 4.29297ZM12 1C12.5523 1 13 1.44772 13 2V5C13 5.55228 12.5523 6 12 6C11.4477 6 11 5.55228 11 5V2C11 1.44772 11.4477 1 12 1Z" fill="#555555"/>
</svg>
